<?xml version="1.0" encoding="UTF-8" standalone="no"?><!DOCTYPE svg PUBLIC "-//W3C//DTD SVG 1.1//EN" "http://www.w3.org/Graphics/SVG/1.1/DTD/svg11.dtd"><!-- Generated by graphviz version 2.40.1 (20161225.0304)
 --><!-- Title: G Pages: 1 --><svg xmlns="http://www.w3.org/2000/svg" xmlns:xlink="http://www.w3.org/1999/xlink" width="518pt" height="577pt" viewBox="0.00 0.00 517.72 576.80">
<g id="graph0" class="graph" transform="scale(1 1) rotate(0) translate(4 572.8)">
<title>G</title>
<polygon fill="#ffffff" stroke="transparent" points="-4,4 -4,-572.8 513.7226,-572.8 513.7226,4 -4,4"/>
<!-- B -->
<g id="node1" class="node">
<title>B</title>
<ellipse fill="none" stroke="#000000" cx="186.2226" cy="-462" rx="27" ry="18"/>
<text text-anchor="middle" x="186.2226" y="-457.8" font-family="Times,serif" font-size="14.00" fill="#000000">B</text>
</g>
<!-- E -->
<g id="node2" class="node">
<title>E</title>
<ellipse fill="none" stroke="#000000" cx="201.2226" cy="-195.6" rx="27" ry="18"/>
<text text-anchor="middle" x="201.2226" y="-191.4" font-family="Times,serif" font-size="14.00" fill="#000000">E</text>
</g>
<!-- B&#45;&#45;E -->
<g id="edge1" class="edge">
<title>B--E</title>
<path fill="none" stroke="#ff0000" stroke-width="3" d="M181.3815,-444.1072C174.7343,-417.2328 164.1989,-364.855 169.7226,-320.4 174.5445,-281.5926 187.4939,-237.5231 195.2057,-213.5205"/>
<text text-anchor="middle" x="182.4726" y="-324.6" font-family="Times,serif" font-size="14.00" fill="#000000"> 132</text>
</g>
<!-- F -->
<g id="node4" class="node">
<title>F</title>
<ellipse fill="none" stroke="#000000" cx="255.2226" cy="-106.8" rx="27" ry="18"/>
<text text-anchor="middle" x="255.2226" y="-102.6" font-family="Times,serif" font-size="14.00" fill="#000000">F</text>
</g>
<!-- B&#45;&#45;F -->
<g id="edge12" class="edge">
<title>B--F</title>
<path fill="none" stroke="#000000" d="M188.2584,-443.8066C193.3725,-398.53 206.7076,-283.2192 211.7226,-266.4 219.169,-241.4264 229.3113,-238.4302 237.2226,-213.6 246.8695,-183.3223 251.624,-146.4765 253.7414,-124.9298"/>
<text text-anchor="middle" x="224.4726" y="-280.2" font-family="Times,serif" font-size="14.00" fill="#000000"> 492</text>
</g>
<!-- D -->
<g id="node5" class="node">
<title>D</title>
<ellipse fill="none" stroke="#000000" cx="110.2226" cy="-284.4" rx="27" ry="18"/>
<text text-anchor="middle" x="110.2226" y="-280.2" font-family="Times,serif" font-size="14.00" fill="#000000">D</text>
</g>
<!-- B&#45;&#45;D -->
<g id="edge3" class="edge">
<title>B--D</title>
<path fill="none" stroke="#ff0000" stroke-width="3" d="M169.2613,-447.6458C155.1153,-434.5495 135.8508,-413.8335 126.7226,-391.2 114.7929,-361.6203 111.4312,-324.2295 110.5188,-302.4459"/>
<text text-anchor="middle" x="139.4726" y="-369" font-family="Times,serif" font-size="14.00" fill="#000000"> 252</text>
</g>
<!-- C -->
<g id="node6" class="node">
<title>C</title>
<ellipse fill="none" stroke="#000000" cx="290.2226" cy="-373.2" rx="27" ry="18"/>
<text text-anchor="middle" x="290.2226" y="-369" font-family="Times,serif" font-size="14.00" fill="#000000">C</text>
</g>
<!-- B&#45;&#45;C -->
<g id="edge6" class="edge">
<title>B--C</title>
<path fill="none" stroke="#000000" d="M202.932,-447.7327C222.3395,-431.1617 254.1648,-403.9878 273.5547,-387.4318"/>
<text text-anchor="middle" x="259.4726" y="-413.4" font-family="Times,serif" font-size="14.00" fill="#000000"> 361</text>
</g>
<!-- G -->
<g id="node7" class="node">
<title>G</title>
<ellipse fill="none" stroke="#000000" cx="209.2226" cy="-18" rx="27" ry="18"/>
<text text-anchor="middle" x="209.2226" y="-13.8" font-family="Times,serif" font-size="14.00" fill="#000000">G</text>
</g>
<!-- B&#45;&#45;G -->
<g id="edge18" class="edge">
<title>B--G</title>
<path fill="none" stroke="#000000" d="M159.7506,-457.4525C119.421,-448.8364 47.2226,-426.0335 47.2226,-373.2 47.2226,-373.2 47.2226,-373.2 47.2226,-106.8 47.2226,-45.8609 136.459,-26.4635 182.4716,-20.5122"/>
<text text-anchor="middle" x="59.4726" y="-235.8" font-family="Times,serif" font-size="14.00" fill="#000000"> 680</text>
</g>
<!-- E&#45;&#45;F -->
<g id="edge8" class="edge">
<title>E--F</title>
<path fill="none" stroke="#ff0000" stroke-width="3" d="M204.5031,-177.5333C206.9984,-166.8652 211.1507,-153.4153 217.7226,-142.8 222.8532,-134.5128 230.329,-126.8107 237.2582,-120.6749"/>
<text text-anchor="middle" x="229.4726" y="-147" font-family="Times,serif" font-size="14.00" fill="#000000"> 391</text>
</g>
<!-- E&#45;&#45;G -->
<g id="edge16" class="edge">
<title>E--G</title>
<path fill="none" stroke="#000000" d="M198.3309,-177.4229C195.3585,-156.1408 191.5758,-119.8486 194.7226,-88.8 196.5697,-70.575 201.0261,-50.1098 204.5149,-35.8873"/>
<text text-anchor="middle" x="207.4726" y="-102.6" font-family="Times,serif" font-size="14.00" fill="#000000"> 650</text>
</g>
<!-- A -->
<g id="node3" class="node">
<title>A</title>
<ellipse fill="none" stroke="#000000" cx="363.2226" cy="-550.8" rx="27" ry="18"/>
<text text-anchor="middle" x="363.2226" y="-546.6" font-family="Times,serif" font-size="14.00" fill="#000000">A</text>
</g>
<!-- A&#45;&#45;B -->
<g id="edge17" class="edge">
<title>A--B</title>
<path fill="none" stroke="#000000" d="M341.5189,-539.9114C307.4555,-522.822 241.8284,-489.8971 207.8267,-472.8387"/>
<text text-anchor="middle" x="302.4726" y="-502.2" font-family="Times,serif" font-size="14.00" fill="#000000"> 670</text>
</g>
<!-- A&#45;&#45;E -->
<g id="edge15" class="edge">
<title>A--E</title>
<path fill="none" stroke="#000000" d="M357.8607,-533.0175C356.3725,-527.2607 354.9625,-520.8104 354.2226,-514.8 344.5744,-436.427 357.3757,-416.143 359.2226,-337.2 359.3972,-329.7354 360.8919,-327.6777 359.2226,-320.4 349.4189,-277.6596 349.4309,-260.2366 316.2226,-231.6 291.3483,-210.1501 253.7308,-201.4698 228.356,-197.9639"/>
<text text-anchor="middle" x="370.4726" y="-369" font-family="Times,serif" font-size="14.00" fill="#000000"> 581</text>
</g>
<!-- A&#45;&#45;F -->
<g id="edge2" class="edge">
<title>A--F</title>
<path fill="none" stroke="#ff0000" stroke-width="3" d="M383.5892,-538.8853C406.1013,-524.0085 439.2226,-496.2936 439.2226,-462 439.2226,-462 439.2226,-462 439.2226,-195.6 439.2226,-160.7507 330.8142,-127.0817 280.4212,-113.3134"/>
<text text-anchor="middle" x="451.4726" y="-324.6" font-family="Times,serif" font-size="14.00" fill="#000000"> 211</text>
</g>
<!-- A&#45;&#45;D -->
<g id="edge10" class="edge">
<title>A--D</title>
<path fill="none" stroke="#000000" d="M337.2993,-545.7341C262.2537,-530.4842 47.6747,-482.5573 8.7226,-426 -24.732,-377.4249 51.6712,-320.6924 89.9817,-296.4138"/>
<text text-anchor="middle" x="21.4726" y="-413.4" font-family="Times,serif" font-size="14.00" fill="#000000"> 427</text>
</g>
<!-- A&#45;&#45;C -->
<g id="edge20" class="edge">
<title>A--C</title>
<path fill="none" stroke="#000000" d="M361.48,-532.3815C360.1612,-522.0813 357.9232,-509.1168 354.2226,-498 340.6103,-457.1074 315.2265,-413.1019 300.8563,-389.8364"/>
<text text-anchor="middle" x="358.4726" y="-457.8" font-family="Times,serif" font-size="14.00" fill="#000000"> 758</text>
</g>
<!-- A&#45;&#45;G -->
<g id="edge7" class="edge">
<title>A--G</title>
<path fill="none" stroke="#ff0000" stroke-width="3" d="M388.7978,-544.5232C424.5721,-534.0368 485.2226,-509.2858 485.2226,-462 485.2226,-462 485.2226,-462 485.2226,-106.8 485.2226,-54.7655 305.2028,-28.8595 235.9374,-20.8176"/>
<text text-anchor="middle" x="497.4726" y="-280.2" font-family="Times,serif" font-size="14.00" fill="#000000"> 369</text>
</g>
<!-- F&#45;&#45;G -->
<g id="edge14" class="edge">
<title>F--G</title>
<path fill="none" stroke="#000000" d="M246.3533,-89.6785C238.2078,-73.954 226.2016,-50.7768 218.0646,-35.069"/>
<text text-anchor="middle" x="248.4726" y="-58.2" font-family="Times,serif" font-size="14.00" fill="#000000"> 521</text>
</g>
<!-- D&#45;&#45;E -->
<g id="edge5" class="edge">
<title>D--E</title>
<path fill="none" stroke="#000000" d="M122.634,-267.9119C131.1336,-257.083 142.9574,-242.8869 154.7226,-231.6 163.2688,-223.4012 173.6175,-215.241 182.3805,-208.7678"/>
<text text-anchor="middle" x="167.4726" y="-235.8" font-family="Times,serif" font-size="14.00" fill="#000000"> 357</text>
</g>
<!-- D&#45;&#45;F -->
<g id="edge9" class="edge">
<title>D--F</title>
<path fill="none" stroke="#000000" d="M111.4156,-266.3901C113.7443,-243.6255 120.598,-204.2056 140.7226,-177.6 144.0007,-173.2662 202.9591,-137.8551 234.9568,-118.8137"/>
<text text-anchor="middle" x="153.4726" y="-191.4" font-family="Times,serif" font-size="14.00" fill="#000000"> 394</text>
</g>
<!-- D&#45;&#45;G -->
<g id="edge11" class="edge">
<title>D--G</title>
<path fill="none" stroke="#000000" d="M109.008,-266.054C108.1865,-244.2993 108.7562,-207.2536 119.2226,-177.6 139.0211,-121.5063 177.9178,-62.2019 197.4473,-34.3081"/>
<text text-anchor="middle" x="145.4726" y="-147" font-family="Times,serif" font-size="14.00" fill="#000000"> 431</text>
</g>
<!-- C&#45;&#45;E -->
<g id="edge13" class="edge">
<title>C--E</title>
<path fill="none" stroke="#000000" d="M282.4293,-355.6416C272.8759,-334.3379 256.0059,-297.4196 240.2226,-266.4 230.7404,-247.7642 219.0844,-226.8374 210.9973,-212.5996"/>
<text text-anchor="middle" x="269.4726" y="-280.2" font-family="Times,serif" font-size="14.00" fill="#000000"> 493</text>
</g>
<!-- C&#45;&#45;F -->
<g id="edge19" class="edge">
<title>C--F</title>
<path fill="none" stroke="#000000" d="M290.7704,-355.2022C291.5122,-315.906 290.8473,-219.7837 270.2226,-142.8 268.5405,-136.5214 266.0106,-129.8893 263.5053,-124.0517"/>
<text text-anchor="middle" x="299.4726" y="-235.8" font-family="Times,serif" font-size="14.00" fill="#000000"> 699</text>
</g>
<!-- C&#45;&#45;D -->
<g id="edge4" class="edge">
<title>C--D</title>
<path fill="none" stroke="#ff0000" stroke-width="3" d="M269.6886,-361.3275C250.2443,-350.252 220.1051,-333.514 193.2226,-320.4 173.3182,-310.6901 150.1608,-300.7553 133.3721,-293.7889"/>
<text text-anchor="middle" x="237.4726" y="-324.6" font-family="Times,serif" font-size="14.00" fill="#000000"> 332</text>
</g>
<!-- C&#45;&#45;G -->
<g id="edge21" class="edge">
<title>C--G</title>
<path fill="none" stroke="#000000" d="M310.1702,-360.8205C331.7841,-345.6937 363.2226,-317.9283 363.2226,-284.4 363.2226,-284.4 363.2226,-284.4 363.2226,-106.8 363.2226,-48.7785 280.1694,-28.0857 236.0473,-21.1864"/>
<text text-anchor="middle" x="375.4726" y="-191.4" font-family="Times,serif" font-size="14.00" fill="#000000"> 759</text>
</g>
</g>
</svg>